<svg width="26" height="26" viewBox="0 0 26 26" fill="none" xmlns="http://www.w3.org/2000/svg">
<path d="M16.4 9.2375L11.0375 14.6125L8.97501 12.55C8.86295 12.4191 8.72505 12.3129 8.56997 12.2378C8.41489 12.1628 8.24597 12.1207 8.07382 12.114C7.90167 12.1074 7.73001 12.1364 7.5696 12.1992C7.40919 12.262 7.26351 12.3574 7.14169 12.4792C7.01987 12.601 6.92455 12.7467 6.86171 12.9071C6.79887 13.0675 6.76986 13.2392 6.77651 13.4113C6.78316 13.5835 6.82532 13.7524 6.90035 13.9075C6.97538 14.0625 7.08165 14.2004 7.21251 14.3125L10.15 17.2625C10.2668 17.3784 10.4053 17.47 10.5576 17.5322C10.7099 17.5944 10.873 17.626 11.0375 17.625C11.3654 17.6236 11.6797 17.4934 11.9125 17.2625L18.1625 11.0125C18.2797 10.8963 18.3727 10.758 18.4361 10.6057C18.4996 10.4534 18.5323 10.29 18.5323 10.125C18.5323 9.95998 18.4996 9.7966 18.4361 9.64428C18.3727 9.49195 18.2797 9.3537 18.1625 9.2375C17.9283 9.00469 17.6115 8.87401 17.2813 8.87401C16.951 8.87401 16.6342 9.00469 16.4 9.2375ZM13 0.75C10.5277 0.75 8.11099 1.48311 6.05538 2.85663C3.99976 4.23015 2.39761 6.18238 1.45151 8.46646C0.505416 10.7505 0.257874 13.2639 0.74019 15.6886C1.2225 18.1134 2.41301 20.3407 4.16117 22.0888C5.90933 23.837 8.13661 25.0275 10.5614 25.5098C12.9861 25.9921 15.4995 25.7446 17.7836 24.7985C20.0676 23.8524 22.0199 22.2502 23.3934 20.1946C24.7669 18.139 25.5 15.7223 25.5 13.25C25.5 11.6085 25.1767 9.98303 24.5485 8.46646C23.9203 6.94989 22.9996 5.5719 21.8388 4.41117C20.6781 3.25043 19.3001 2.32969 17.7836 1.70151C16.267 1.07332 14.6415 0.75 13 0.75ZM13 23.25C11.0222 23.25 9.08879 22.6635 7.4443 21.5647C5.79981 20.4659 4.51809 18.9041 3.76121 17.0768C3.00433 15.2496 2.8063 13.2389 3.19215 11.2991C3.57801 9.35929 4.53041 7.57746 5.92894 6.17893C7.32746 4.78041 9.10929 3.828 11.0491 3.44215C12.9889 3.0563 14.9996 3.25433 16.8268 4.0112C18.6541 4.76808 20.2159 6.04981 21.3147 7.6943C22.4135 9.33879 23 11.2722 23 13.25C23 15.9022 21.9464 18.4457 20.0711 20.3211C18.1957 22.1964 15.6522 23.25 13 23.25Z" fill="#252525"/>
</svg>
