<svg width="26" height="26" viewBox="0 0 26 26" fill="none" xmlns="http://www.w3.org/2000/svg">
<path d="M17.6378 8.6118C17.5216 8.49465 17.3833 8.40165 17.231 8.33819C17.0787 8.27473 16.9153 8.24206 16.7503 8.24206C16.5853 8.24206 16.4219 8.27473 16.2696 8.33819C16.1172 8.40165 15.979 8.49465 15.8628 8.6118L13.0003 11.4868L10.1378 8.6118C9.9024 8.37643 9.58316 8.24419 9.25028 8.24419C8.91741 8.24419 8.59816 8.37643 8.36278 8.6118C8.1274 8.84719 7.99517 9.16643 7.99517 9.49931C7.99517 9.83218 8.1274 10.1514 8.36278 10.3868L11.2378 13.2493L8.36278 16.1118C8.24562 16.228 8.15263 16.3663 8.08917 16.5186C8.02571 16.6709 7.99303 16.8343 7.99303 16.9993C7.99303 17.1643 8.02571 17.3277 8.08917 17.48C8.15263 17.6324 8.24562 17.7706 8.36278 17.8868C8.47899 18.004 8.61724 18.097 8.76956 18.1604C8.92189 18.2239 9.08527 18.2566 9.25028 18.2566C9.4153 18.2566 9.57868 18.2239 9.731 18.1604C9.88333 18.097 10.0216 18.004 10.1378 17.8868L13.0003 15.0118L15.8628 17.8868C15.979 18.004 16.1172 18.097 16.2696 18.1604C16.4219 18.2239 16.5853 18.2566 16.7503 18.2566C16.9153 18.2566 17.0787 18.2239 17.231 18.1604C17.3833 18.097 17.5216 18.004 17.6378 17.8868C17.7549 17.7706 17.8479 17.6324 17.9114 17.48C17.9749 17.3277 18.0075 17.1643 18.0075 16.9993C18.0075 16.8343 17.9749 16.6709 17.9114 16.5186C17.8479 16.3663 17.7549 16.228 17.6378 16.1118L14.7628 13.2493L17.6378 10.3868C17.7549 10.2706 17.8479 10.1324 17.9114 9.98003C17.9749 9.8277 18.0075 9.66432 18.0075 9.49931C18.0075 9.33429 17.9749 9.17091 17.9114 9.01858C17.8479 8.86626 17.7549 8.72801 17.6378 8.6118ZM21.8378 4.41181C20.6847 3.21793 19.3054 2.26565 17.7803 1.61054C16.2553 0.955426 14.615 0.610598 12.9553 0.596175C11.2956 0.581752 9.64956 0.898024 8.11336 1.52653C6.57715 2.15505 5.1815 3.08321 4.00785 4.25687C2.83419 5.43053 1.90602 6.82618 1.27751 8.36238C0.649 9.89858 0.332729 11.5446 0.347152 13.2043C0.361574 14.8641 0.706402 16.5043 1.36151 18.0294C2.01663 19.5544 2.9689 20.9337 4.16278 22.0868C5.31587 23.2807 6.69518 24.233 8.22023 24.8881C9.74528 25.5432 11.3855 25.888 13.0453 25.9024C14.705 25.9169 16.351 25.6006 17.8872 24.9721C19.4234 24.3436 20.8191 23.4154 21.9927 22.2417C23.1664 21.0681 24.0945 19.6724 24.7231 18.1362C25.3516 16.6 25.6678 14.954 25.6534 13.2943C25.639 11.6345 25.2942 9.9943 24.6391 8.46925C23.9839 6.9442 23.0317 5.56489 21.8378 4.41181ZM20.0753 20.3243C18.4403 21.9611 16.2885 22.9803 13.9863 23.2084C11.6841 23.4365 9.37404 22.8594 7.44968 21.5753C5.52533 20.2912 4.10573 18.3796 3.43275 16.1662C2.75977 13.9528 2.87504 11.5745 3.75892 9.43654C4.64281 7.29859 6.24063 5.53324 8.28015 4.44126C10.3197 3.34928 12.6747 2.99822 14.944 3.4479C17.2134 3.89758 19.2566 5.12017 20.7256 6.90738C22.1946 8.69459 22.9985 10.9359 23.0003 13.2493C23.0047 14.5634 22.7485 15.8654 22.2464 17.0798C21.7444 18.2942 21.0064 19.397 20.0753 20.3243Z" fill="#252525"/>
</svg>
