<svg width="26" height="25" viewBox="0 0 26 25" fill="none" xmlns="http://www.w3.org/2000/svg">
<path d="M5.26886 2.32663L1.57663 6.01886C1.49087 6.10462 1.38906 6.17265 1.27701 6.21907C1.16495 6.26548 1.04486 6.28937 0.92357 6.28937C0.802285 6.28937 0.682188 6.26548 0.570135 6.21907C0.458083 6.17265 0.356269 6.10462 0.270508 6.01886C0.0973045 5.84566 0 5.61074 0 5.3658C0 5.12085 0.0973045 4.88594 0.270508 4.71274L3.96274 1.02051C4.0485 0.934746 4.15031 0.866716 4.26236 0.820303C4.37442 0.773889 4.49451 0.75 4.6158 0.75C4.73708 0.75 4.85718 0.773889 4.96923 0.820303C5.08129 0.866716 5.1831 0.934746 5.26886 1.02051C5.35462 1.10627 5.42265 1.20808 5.46907 1.32014C5.51548 1.43219 5.53937 1.55229 5.53937 1.67357C5.53937 1.79486 5.51548 1.91495 5.46907 2.02701C5.42265 2.13906 5.35462 2.24087 5.26886 2.32663ZM25.5761 4.71274L21.8839 1.02051C21.7107 0.847305 21.4758 0.75 21.2308 0.75C20.9859 0.75 20.751 0.847304 20.5778 1.02051C20.4046 1.19371 20.3073 1.42862 20.3073 1.67357C20.3073 1.91852 20.4046 2.15343 20.5778 2.32663L24.27 6.01886C24.3558 6.10462 24.4576 6.17265 24.5696 6.21907C24.6817 6.26548 24.8018 6.28937 24.9231 6.28937C25.0443 6.28937 25.1644 6.26548 25.2765 6.21907C25.3885 6.17265 25.4904 6.10462 25.5761 6.01886C25.6619 5.9331 25.7299 5.83129 25.7763 5.71923C25.8227 5.60718 25.8466 5.48708 25.8466 5.3658C25.8466 5.24451 25.8227 5.12442 25.7763 5.01236C25.7299 4.90031 25.6619 4.7985 25.5761 4.71274ZM24 13.6733C24 15.8641 23.3504 18.0056 22.1332 19.8272C20.9161 21.6487 19.1862 23.0685 17.1622 23.9068C15.1382 24.7452 12.911 24.9646 10.7624 24.5372C8.61369 24.1098 6.64002 23.0548 5.09091 21.5057C3.54181 19.9566 2.48686 17.9829 2.05946 15.8343C1.63207 13.6856 1.85142 11.4584 2.68979 9.43445C3.52816 7.41045 4.94788 5.68051 6.76944 4.46339C8.59099 3.24626 10.7326 2.59663 12.9233 2.59663C15.86 2.59999 18.6754 3.76807 20.752 5.84462C22.8286 7.92118 23.9966 10.7366 24 13.6733ZM20.3078 13.6733C20.3078 13.4285 20.2105 13.1937 20.0374 13.0206C19.8643 12.8475 19.6295 12.7503 19.3847 12.7503H13.8464V7.21191C13.8464 6.9671 13.7491 6.73232 13.576 6.55921C13.4029 6.38611 13.1681 6.28886 12.9233 6.28886C12.6785 6.28886 12.4437 6.38611 12.2706 6.55921C12.0975 6.73232 12.0003 6.9671 12.0003 7.21191V13.6733C12.0003 13.9181 12.0975 14.1529 12.2706 14.326C12.4437 14.4991 12.6785 14.5964 12.9233 14.5964H19.3847C19.6295 14.5964 19.8643 14.4991 20.0374 14.326C20.2105 14.1529 20.3078 13.9181 20.3078 13.6733Z" fill="#252525"/>
</svg>
