<svg width="26" height="26" viewBox="0 0 26 26" fill="none" xmlns="http://www.w3.org/2000/svg">
<path d="M25.5 7.30002C25.501 7.13551 25.4694 6.97243 25.4072 6.82014C25.345 6.66784 25.2534 6.52932 25.1375 6.41252L19.8375 1.11252C19.7207 0.996669 19.5822 0.905013 19.4299 0.842807C19.2776 0.780601 19.1145 0.74907 18.95 0.750021C18.7855 0.74907 18.6224 0.780601 18.4701 0.842807C18.3178 0.905013 18.1793 0.996669 18.0625 1.11252L14.525 4.65002L0.862521 18.3125C0.746669 18.4293 0.655013 18.5678 0.592807 18.7201C0.530601 18.8724 0.49907 19.0355 0.500021 19.2V24.5C0.500021 24.8315 0.631717 25.1495 0.866137 25.3839C1.10056 25.6183 1.4185 25.75 1.75002 25.75H7.05002C7.22493 25.7595 7.39989 25.7322 7.56355 25.6697C7.7272 25.6073 7.87591 25.5111 8.00002 25.3875L21.5875 11.725L25.1375 8.25002C25.2516 8.12887 25.3446 7.98944 25.4125 7.83752C25.4246 7.73788 25.4246 7.63716 25.4125 7.53752C25.4184 7.47933 25.4184 7.42071 25.4125 7.36252L25.5 7.30002ZM6.53752 23.25H3.00002V19.7125L15.4125 7.30002L18.95 10.8375L6.53752 23.25ZM20.7125 9.07502L17.175 5.53752L18.95 3.77502L22.475 7.30002L20.7125 9.07502Z" fill="#252525"/>
</svg>
