<svg width="42" height="56" viewBox="0 0 42 56" fill="none" xmlns="http://www.w3.org/2000/svg">
<path fill-rule="evenodd" clip-rule="evenodd" d="M0.0674133 -0.00195312L41.4745 -0.00195313V13.2084C38.9708 12.5779 36.7505 12.2122 35.4255 12.2122C30.7369 12.2122 26.9361 16.013 26.9361 20.7016C26.9361 25.3902 30.7369 29.1911 35.4255 29.1911C36.7505 29.1911 38.9708 28.9497 41.4745 28.4976V41.4052H28.5834C29.0759 43.8451 29.3561 46.0054 29.3827 47.3067C29.4786 51.9943 25.7076 55.8731 20.9598 55.9703C16.2121 56.0675 12.2855 52.3461 12.1896 47.6585C12.1618 46.3014 12.5035 43.997 13.1182 41.4052H0.0674133L0.0674133 -0.00195312Z" fill="inherit"/>
</svg>
