<svg width="40" height="50" viewBox="0 0 18 18" fill="none" xmlns="http://www.w3.org/2000/svg">
<path d="M10.6668 0.667969H4.00016C3.55814 0.667969 3.13421 0.843563 2.82165 1.15612C2.50909 1.46868 2.3335 1.89261 2.3335 2.33464V15.668C2.3335 16.11 2.50909 16.5339 2.82165 16.8465C3.13421 17.159 3.55814 17.3346 4.00016 17.3346H14.0002C14.4422 17.3346 14.8661 17.159 15.1787 16.8465C15.4912 16.5339 15.6668 16.11 15.6668 15.668V5.66797L10.6668 0.667969Z" stroke="#0e1079" stroke-linecap="round" stroke-linejoin="round"/>
<path d="M10.6665 0.667969V5.66797H15.6665" stroke="#0e1079" stroke-linecap="round" stroke-linejoin="round"/>
<path d="M12.3332 9.83203H5.6665" stroke="#0e1079" stroke-linecap="round" stroke-linejoin="round"/>
<path d="M12.3332 13.168H5.6665" stroke="#0e1079" stroke-linecap="round" stroke-linejoin="round"/>
<path d="M7.33341 6.5H6.50008H5.66675" stroke="#0e1079" stroke-linecap="round" stroke-linejoin="round"/>
</svg>
