<svg width="43" height="57" viewBox="0 0 43 57" fill="none" xmlns="http://www.w3.org/2000/svg">
	<path fill-rule="evenodd" clip-rule="evenodd"
		d="M0.884827 0.0898438L42.292 0.0898437V13.3003C39.7883 12.6697 37.568 12.304 36.243 12.304C31.5544 12.304 27.7535 16.1048 27.7535 20.7934C27.7535 25.482 31.5544 29.2829 36.243 29.2829C37.568 29.2829 39.7883 29.0415 42.292 28.5894V41.497H29.4003C29.8927 43.9369 30.1729 46.0972 30.1995 47.3985C30.2955 52.0862 26.5244 55.965 21.7767 56.0622C17.0289 56.1593 13.1024 52.438 13.0064 47.7504C12.9787 46.3933 13.3203 44.0889 13.9351 41.497H0.884827L0.884827 0.0898438Z"
		fill="inherit" />
</svg>